# WaveFront *.obj file (generated by Cinema 4D)

mtllib ./skybox.mtl

v -100.000000 -100.000000 100.000000
v -100.000000 100.000000 100.000000
v 100.000000 -100.000000 100.000000
v 100.000000 100.000000 100.000000
v 100.000000 -100.000000 -100.000000
v 100.000000 100.000000 -100.000000
v -100.000000 -100.000000 -100.000000
v -100.000000 100.000000 -100.000000
# 8 vertices

vn 0.000000 0.000000 -1.000000
vn -1.000000 0.000000 0.000000
vn 0.000000 0.000000 1.000000
vn 1.000000 0.000000 0.000000
vn 0.000000 -1.000000 0.000000
vn 0.000000 1.000000 0.000000
# 6 normals

vt 0.499851 0.333792 0.000000
vt 0.499851 0.666208 0.000000
vt 0.250744 0.666208 0.000000
vt 0.250744 0.333792 0.000000
vt 0.748958 0.333792 0.000000
vt 0.748958 0.666208 0.000000
vt 0.998065 0.333792 0.000000
vt 0.998065 0.666208 0.000000
vt 0.001637 0.666208 0.000000
vt 0.001637 0.333792 0.000000
vt 0.499851 0.998623 0.000000
vt 0.250744 0.998623 0.000000
vt 0.499851 0.001377 0.000000
vt 0.250744 0.001377 0.000000
# 14 texture coordinates

o W_rfel
usemtl sky
f 1/4/1 2/3/1 4/2/1 3/1/1
f 3/1/2 4/2/2 6/6/2 5/5/2
f 5/5/3 6/6/3 8/8/3 7/7/3
f 7/10/4 8/9/4 2/3/4 1/4/4
f 2/3/5 8/12/5 6/11/5 4/2/5
f 7/14/6 1/4/6 3/1/6 5/13/6

